<svg width="40" height="40" viewBox="0 0 40 40" fill="none" xmlns="http://www.w3.org/2000/svg">
<g clip-path="url(#clip0_1720_4834)">
<path d="M34.9998 7.95719V36C34.9998 38.2091 33.209 40 30.9998 40H9C6.79086 40 5 38.2091 5 36V4C5 1.79086 6.79086 0 9 0H26.3367L34.9998 7.95719Z" fill="#6172F3"/>
<g filter="url(#filter0_d_1720_4834)">
<path d="M34.9998 7.95719H27.3367C26.7844 7.95719 26.3367 7.50947 26.3367 6.95719V0L34.9998 7.95719Z" fill="#C7D7FE"/>
</g>
<path d="M15.6806 23.682V27.984C15.6806 28.65 15.4916 29.163 15.1136 29.523C14.7416 29.883 14.2376 30.063 13.6016 30.063C12.9356 30.063 12.4016 29.874 11.9996 29.496C11.5976 29.118 11.3966 28.581 11.3966 27.885H12.9266C12.9266 28.149 12.9806 28.35 13.0886 28.488C13.1966 28.62 13.3526 28.686 13.5566 28.686C13.7426 28.686 13.8866 28.626 13.9886 28.506C14.0906 28.386 14.1416 28.212 14.1416 27.984V23.682H15.6806ZM21.7387 25.716C21.7387 26.082 21.6547 26.418 21.4867 26.724C21.3187 27.024 21.0607 27.267 20.7127 27.453C20.3647 27.639 19.9327 27.732 19.4167 27.732H18.4627V30H16.9237V23.682H19.4167C19.9207 23.682 20.3467 23.769 20.6947 23.943C21.0427 24.117 21.3037 24.357 21.4777 24.663C21.6517 24.969 21.7387 25.32 21.7387 25.716ZM19.2997 26.508C19.5937 26.508 19.8127 26.439 19.9567 26.301C20.1007 26.163 20.1727 25.968 20.1727 25.716C20.1727 25.464 20.1007 25.269 19.9567 25.131C19.8127 24.993 19.5937 24.924 19.2997 24.924H18.4627V26.508H19.2997ZM26.7339 25.68C26.6199 25.47 26.4549 25.311 26.2389 25.203C26.0289 25.089 25.7799 25.032 25.4919 25.032C24.9939 25.032 24.5949 25.197 24.2949 25.527C23.9949 25.851 23.8449 26.286 23.8449 26.832C23.8449 27.414 24.0009 27.87 24.3129 28.2C24.6309 28.524 25.0659 28.686 25.6179 28.686C25.9959 28.686 26.3139 28.59 26.5719 28.398C26.8359 28.206 27.0279 27.93 27.1479 27.57H25.1949V26.436H28.5429V27.867C28.4289 28.251 28.2339 28.608 27.9579 28.938C27.6879 29.268 27.3429 29.535 26.9229 29.739C26.5029 29.943 26.0289 30.045 25.5009 30.045C24.8769 30.045 24.3189 29.91 23.8269 29.64C23.3409 29.364 22.9599 28.983 22.6839 28.497C22.4139 28.011 22.2789 27.456 22.2789 26.832C22.2789 26.208 22.4139 25.653 22.6839 25.167C22.9599 24.675 23.3409 24.294 23.8269 24.024C24.3129 23.748 24.8679 23.61 25.4919 23.61C26.2479 23.61 26.8839 23.793 27.3999 24.159C27.9219 24.525 28.2669 25.032 28.4349 25.68H26.7339Z" fill="white"/>
</g>
<defs>
<filter id="filter0_d_1720_4834" x="23.3367" y="-1" width="12.6631" height="11.9573" filterUnits="userSpaceOnUse" color-interpolation-filters="sRGB">
<feFlood flood-opacity="0" result="BackgroundImageFix"/>
<feColorMatrix in="SourceAlpha" type="matrix" values="0 0 0 0 0 0 0 0 0 0 0 0 0 0 0 0 0 0 127 0" result="hardAlpha"/>
<feOffset dx="-1" dy="1"/>
<feGaussianBlur stdDeviation="1"/>
<feComposite in2="hardAlpha" operator="out"/>
<feColorMatrix type="matrix" values="0 0 0 0 0 0 0 0 0 0 0 0 0 0 0 0 0 0 0.2 0"/>
<feBlend mode="normal" in2="BackgroundImageFix" result="effect1_dropShadow_1720_4834"/>
<feBlend mode="normal" in="SourceGraphic" in2="effect1_dropShadow_1720_4834" result="shape"/>
</filter>
<clipPath id="clip0_1720_4834">
<rect width="40" height="40" fill="white"/>
</clipPath>
</defs>
</svg>
