<svg width="40" height="40" viewBox="0 0 40 40" fill="none" xmlns="http://www.w3.org/2000/svg">
<g clip-path="url(#clip0_1720_5174)">
<path d="M34.9998 7.95719V36C34.9998 38.2091 33.209 40 30.9998 40H9C6.79086 40 5 38.2091 5 36V4C5 1.79086 6.79086 0 9 0H26.3367L34.9998 7.95719Z" fill="url(#paint0_linear_1720_5174)"/>
<g filter="url(#filter0_d_1720_5174)">
<path d="M34.9998 7.95719H27.3367C26.7844 7.95719 26.3367 7.50947 26.3367 6.95719V0L34.9998 7.95719Z" fill="#6172F3"/>
</g>
<path d="M15.3073 30L13.9933 27.615H13.6243V30H12.0853V23.682H14.6683C15.1663 23.682 15.5893 23.769 15.9373 23.943C16.2913 24.117 16.5553 24.357 16.7293 24.663C16.9033 24.963 16.9903 25.299 16.9903 25.671C16.9903 26.091 16.8703 26.466 16.6303 26.796C16.3963 27.126 16.0483 27.36 15.5863 27.498L17.0443 30H15.3073ZM13.6243 26.526H14.5783C14.8603 26.526 15.0703 26.457 15.2083 26.319C15.3523 26.181 15.4243 25.986 15.4243 25.734C15.4243 25.494 15.3523 25.305 15.2083 25.167C15.0703 25.029 14.8603 24.96 14.5783 24.96H13.6243V26.526ZM20.2424 30.063C19.7804 30.063 19.3664 29.988 19.0004 29.838C18.6344 29.688 18.3404 29.466 18.1184 29.172C17.9024 28.878 17.7884 28.524 17.7764 28.11H19.4144C19.4384 28.344 19.5194 28.524 19.6574 28.65C19.7954 28.77 19.9754 28.83 20.1974 28.83C20.4254 28.83 20.6054 28.779 20.7374 28.677C20.8694 28.569 20.9354 28.422 20.9354 28.236C20.9354 28.08 20.8814 27.951 20.7734 27.849C20.6714 27.747 20.5424 27.663 20.3864 27.597C20.2364 27.531 20.0204 27.456 19.7384 27.372C19.3304 27.246 18.9974 27.12 18.7394 26.994C18.4814 26.868 18.2594 26.682 18.0734 26.436C17.8874 26.19 17.7944 25.869 17.7944 25.473C17.7944 24.885 18.0074 24.426 18.4334 24.096C18.8594 23.76 19.4144 23.592 20.0984 23.592C20.7944 23.592 21.3554 23.76 21.7814 24.096C22.2074 24.426 22.4354 24.888 22.4654 25.482H20.8004C20.7884 25.278 20.7134 25.119 20.5754 25.005C20.4374 24.885 20.2604 24.825 20.0444 24.825C19.8584 24.825 19.7084 24.876 19.5944 24.978C19.4804 25.074 19.4234 25.215 19.4234 25.401C19.4234 25.605 19.5194 25.764 19.7114 25.878C19.9034 25.992 20.2034 26.115 20.6114 26.247C21.0194 26.385 21.3494 26.517 21.6014 26.643C21.8594 26.769 22.0814 26.952 22.2674 27.192C22.4534 27.432 22.5464 27.741 22.5464 28.119C22.5464 28.479 22.4534 28.806 22.2674 29.1C22.0874 29.394 21.8234 29.628 21.4754 29.802C21.1274 29.976 20.7164 30.063 20.2424 30.063ZM25.7795 30.063C25.3175 30.063 24.9035 29.988 24.5375 29.838C24.1715 29.688 23.8775 29.466 23.6555 29.172C23.4395 28.878 23.3255 28.524 23.3135 28.11H24.9515C24.9755 28.344 25.0565 28.524 25.1945 28.65C25.3325 28.77 25.5125 28.83 25.7345 28.83C25.9625 28.83 26.1425 28.779 26.2745 28.677C26.4065 28.569 26.4725 28.422 26.4725 28.236C26.4725 28.08 26.4185 27.951 26.3105 27.849C26.2085 27.747 26.0795 27.663 25.9235 27.597C25.7735 27.531 25.5575 27.456 25.2755 27.372C24.8675 27.246 24.5345 27.12 24.2765 26.994C24.0185 26.868 23.7965 26.682 23.6105 26.436C23.4245 26.19 23.3315 25.869 23.3315 25.473C23.3315 24.885 23.5445 24.426 23.9705 24.096C24.3965 23.76 24.9515 23.592 25.6355 23.592C26.3315 23.592 26.8925 23.76 27.3185 24.096C27.7445 24.426 27.9725 24.888 28.0025 25.482H26.3375C26.3255 25.278 26.2505 25.119 26.1125 25.005C25.9745 24.885 25.7975 24.825 25.5815 24.825C25.3955 24.825 25.2455 24.876 25.1315 24.978C25.0175 25.074 24.9605 25.215 24.9605 25.401C24.9605 25.605 25.0565 25.764 25.2485 25.878C25.4405 25.992 25.7405 26.115 26.1485 26.247C26.5565 26.385 26.8865 26.517 27.1385 26.643C27.3965 26.769 27.6185 26.952 27.8045 27.192C27.9905 27.432 28.0835 27.741 28.0835 28.119C28.0835 28.479 27.9905 28.806 27.8045 29.1C27.6245 29.394 27.3605 29.628 27.0125 29.802C26.6645 29.976 26.2535 30.063 25.7795 30.063Z" fill="white"/>
</g>
<defs>
<filter id="filter0_d_1720_5174" x="23.3367" y="-1" width="12.6631" height="11.957" filterUnits="userSpaceOnUse" color-interpolation-filters="sRGB">
<feFlood flood-opacity="0" result="BackgroundImageFix"/>
<feColorMatrix in="SourceAlpha" type="matrix" values="0 0 0 0 0 0 0 0 0 0 0 0 0 0 0 0 0 0 127 0" result="hardAlpha"/>
<feOffset dx="-1" dy="1"/>
<feGaussianBlur stdDeviation="1"/>
<feComposite in2="hardAlpha" operator="out"/>
<feColorMatrix type="matrix" values="0 0 0 0 0 0 0 0 0 0 0 0 0 0 0 0 0 0 0.2 0"/>
<feBlend mode="normal" in2="BackgroundImageFix" result="effect1_dropShadow_1720_5174"/>
<feBlend mode="normal" in="SourceGraphic" in2="effect1_dropShadow_1720_5174" result="shape"/>
</filter>
<linearGradient id="paint0_linear_1720_5174" x1="50.5" y1="-23.5" x2="-11.5" y2="58.5" gradientUnits="userSpaceOnUse">
<stop stop-color="#EEF4FF"/>
<stop offset="0.265" stop-color="#3538CD"/>
<stop offset="0.90788" stop-color="#2D3282"/>
</linearGradient>
<clipPath id="clip0_1720_5174">
<rect width="40" height="40" fill="white"/>
</clipPath>
</defs>
</svg>
