<svg width="40" height="40" viewBox="0 0 40 40" fill="none" xmlns="http://www.w3.org/2000/svg">
<g clip-path="url(#clip0_1720_5008)">
<path d="M34.9998 7.95719V36C34.9998 38.2091 33.209 40 30.9998 40H9C6.79086 40 5 38.2091 5 36V4C5 1.79086 6.79086 0 9 0H26.3367L34.9998 7.95719Z" fill="#6172F3"/>
<g filter="url(#filter0_d_1720_5008)">
<path d="M34.9998 7.95719H27.3367C26.7844 7.95719 26.3367 7.50947 26.3367 6.95719V0L34.9998 7.95719Z" fill="#C7D7FE"/>
</g>
<path d="M16.1953 23.682V24.915H14.5213V30H12.9823V24.915H11.3083V23.682H16.1953ZM18.5067 23.682V30H16.9677V23.682H18.5067ZM23.735 23.682V24.915H21.161V26.247H23.087V27.444H21.161V30H19.622V23.682H23.735ZM28.6568 23.682V24.915H26.0828V26.247H28.0088V27.444H26.0828V30H24.5438V23.682H28.6568Z" fill="white"/>
</g>
<defs>
<filter id="filter0_d_1720_5008" x="23.3367" y="-1" width="12.6631" height="11.9573" filterUnits="userSpaceOnUse" color-interpolation-filters="sRGB">
<feFlood flood-opacity="0" result="BackgroundImageFix"/>
<feColorMatrix in="SourceAlpha" type="matrix" values="0 0 0 0 0 0 0 0 0 0 0 0 0 0 0 0 0 0 127 0" result="hardAlpha"/>
<feOffset dx="-1" dy="1"/>
<feGaussianBlur stdDeviation="1"/>
<feComposite in2="hardAlpha" operator="out"/>
<feColorMatrix type="matrix" values="0 0 0 0 0 0 0 0 0 0 0 0 0 0 0 0 0 0 0.2 0"/>
<feBlend mode="normal" in2="BackgroundImageFix" result="effect1_dropShadow_1720_5008"/>
<feBlend mode="normal" in="SourceGraphic" in2="effect1_dropShadow_1720_5008" result="shape"/>
</filter>
<clipPath id="clip0_1720_5008">
<rect width="40" height="40" fill="white"/>
</clipPath>
</defs>
</svg>
