<svg width="40" height="40" viewBox="0 0 40 40" fill="none" xmlns="http://www.w3.org/2000/svg">
<g clip-path="url(#clip0_1720_5349)">
<path d="M34.9998 7.95719V36C34.9998 38.2091 33.209 40 30.9998 40H9C6.79086 40 5 38.2091 5 36V4C5 1.79086 6.79086 0 9 0H26.3367L34.9998 7.95719Z" fill="#6172F3"/>
<g clip-path="url(#clip1_1720_5349)">
<path d="M25.2134 19.3333H14.7867C13.9841 19.3333 13.3334 19.9839 13.3334 20.7866V31.2133C13.3334 32.0159 13.9841 32.6666 14.7867 32.6666H25.2134C26.016 32.6666 26.6667 32.0159 26.6667 31.2133V20.7866C26.6667 19.9839 26.016 19.3333 25.2134 19.3333Z" stroke="white" stroke-width="1.33333" stroke-linecap="round" stroke-linejoin="round"/>
<path d="M16.6666 19.3333V32.6666" stroke="white" stroke-width="1.33333" stroke-linecap="round" stroke-linejoin="round"/>
<path d="M23.3334 19.3333V32.6666" stroke="white" stroke-width="1.33333" stroke-linecap="round" stroke-linejoin="round"/>
<path d="M13.3334 26H26.6667" stroke="white" stroke-width="1.33333" stroke-linecap="round" stroke-linejoin="round"/>
<path d="M13.3334 22.6667H16.6667" stroke="white" stroke-width="1.33333" stroke-linecap="round" stroke-linejoin="round"/>
<path d="M13.3334 29.3333H16.6667" stroke="white" stroke-width="1.33333" stroke-linecap="round" stroke-linejoin="round"/>
<path d="M23.3334 29.3333H26.6667" stroke="white" stroke-width="1.33333" stroke-linecap="round" stroke-linejoin="round"/>
<path d="M23.3334 22.6667H26.6667" stroke="white" stroke-width="1.33333" stroke-linecap="round" stroke-linejoin="round"/>
</g>
<g filter="url(#filter0_d_1720_5349)">
<path d="M34.9998 7.95719H27.3367C26.7844 7.95719 26.3367 7.50947 26.3367 6.95719V0L34.9998 7.95719Z" fill="#C7D7FE"/>
</g>
</g>
<defs>
<filter id="filter0_d_1720_5349" x="23.3367" y="-1" width="12.6631" height="11.9573" filterUnits="userSpaceOnUse" color-interpolation-filters="sRGB">
<feFlood flood-opacity="0" result="BackgroundImageFix"/>
<feColorMatrix in="SourceAlpha" type="matrix" values="0 0 0 0 0 0 0 0 0 0 0 0 0 0 0 0 0 0 127 0" result="hardAlpha"/>
<feOffset dx="-1" dy="1"/>
<feGaussianBlur stdDeviation="1"/>
<feComposite in2="hardAlpha" operator="out"/>
<feColorMatrix type="matrix" values="0 0 0 0 0 0 0 0 0 0 0 0 0 0 0 0 0 0 0.2 0"/>
<feBlend mode="normal" in2="BackgroundImageFix" result="effect1_dropShadow_1720_5349"/>
<feBlend mode="normal" in="SourceGraphic" in2="effect1_dropShadow_1720_5349" result="shape"/>
</filter>
<clipPath id="clip0_1720_5349">
<rect width="40" height="40" fill="white"/>
</clipPath>
<clipPath id="clip1_1720_5349">
<rect width="16" height="16" fill="white" transform="translate(12 18)"/>
</clipPath>
</defs>
</svg>
