<svg width="40" height="40" viewBox="0 0 40 40" fill="none" xmlns="http://www.w3.org/2000/svg">
<path d="M34.2498 8.28667V36C34.2498 37.7949 32.7947 39.25 30.9998 39.25H9C7.20507 39.25 5.75 37.7949 5.75 36V4C5.75 2.20508 7.20508 0.75 9 0.75H26.0445L34.2498 8.28667Z" stroke="#D0D5DD" stroke-width="1.5"/>
<mask id="path-2-inside-1_1720_5871" fill="white">
<path d="M25 1H33.5V9.5H26C25.4477 9.5 25 9.05229 25 8.5V1Z"/>
</mask>
<path d="M25 1H33.5H25ZM33.5 10.5H26C24.8954 10.5 24 9.60457 24 8.5H26H33.5V10.5ZM26 10.5C24.8954 10.5 24 9.60457 24 8.5V1H26V8.5V10.5ZM33.5 1V9.5V1Z" fill="#D0D5DD" mask="url(#path-2-inside-1_1720_5871)"/>
<g clip-path="url(#clip0_1720_5871)">
<path d="M25.2134 19.3333H14.7867C13.9841 19.3333 13.3334 19.9839 13.3334 20.7866V31.2133C13.3334 32.0159 13.9841 32.6666 14.7867 32.6666H25.2134C26.016 32.6666 26.6667 32.0159 26.6667 31.2133V20.7866C26.6667 19.9839 26.016 19.3333 25.2134 19.3333Z" stroke="#6172F3" stroke-width="1.33333" stroke-linecap="round" stroke-linejoin="round"/>
<path d="M16.6666 19.3333V32.6666" stroke="#6172F3" stroke-width="1.33333" stroke-linecap="round" stroke-linejoin="round"/>
<path d="M23.3334 19.3333V32.6666" stroke="#6172F3" stroke-width="1.33333" stroke-linecap="round" stroke-linejoin="round"/>
<path d="M13.3334 26H26.6667" stroke="#6172F3" stroke-width="1.33333" stroke-linecap="round" stroke-linejoin="round"/>
<path d="M13.3334 22.6667H16.6667" stroke="#6172F3" stroke-width="1.33333" stroke-linecap="round" stroke-linejoin="round"/>
<path d="M13.3334 29.3333H16.6667" stroke="#6172F3" stroke-width="1.33333" stroke-linecap="round" stroke-linejoin="round"/>
<path d="M23.3334 29.3333H26.6667" stroke="#6172F3" stroke-width="1.33333" stroke-linecap="round" stroke-linejoin="round"/>
<path d="M23.3334 22.6667H26.6667" stroke="#6172F3" stroke-width="1.33333" stroke-linecap="round" stroke-linejoin="round"/>
</g>
<defs>
<clipPath id="clip0_1720_5871">
<rect width="16" height="16" fill="white" transform="translate(12 18)"/>
</clipPath>
</defs>
</svg>
